<svg width="24" height="24" viewBox="0 0 24 24" fill="none" xmlns="http://www.w3.org/2000/svg">
<path d="M21.28 16.35C21.0845 16.2926 20.8965 16.212 20.72 16.11C20.1002 15.7401 19.3919 15.5447 18.67 15.5447C17.9482 15.5447 17.2399 15.7401 16.62 16.11C16.2296 16.3308 15.7886 16.4469 15.34 16.4469C14.8914 16.4469 14.4505 16.3308 14.06 16.11C13.4327 15.7513 12.7226 15.5626 12 15.5626C11.2774 15.5626 10.5673 15.7513 9.94003 16.11C9.54958 16.3308 9.10862 16.4469 8.66003 16.4469C8.21145 16.4469 7.77049 16.3308 7.38003 16.11C6.74629 15.7478 6.02995 15.5549 5.30003 15.55C4.59486 15.5515 3.90342 15.7451 3.30003 16.11C3.12358 16.212 2.93559 16.2926 2.74003 16.35C2.48542 16.4243 2.27074 16.5966 2.14322 16.8292C2.0157 17.0617 1.98577 17.3354 2.06003 17.59C2.13429 17.8446 2.30665 18.0593 2.5392 18.1868C2.77174 18.3143 3.04542 18.3443 3.30003 18.27C3.65064 18.1618 3.98652 18.0107 4.30003 17.82C4.6186 17.6337 4.98099 17.5355 5.35003 17.5355C5.71907 17.5355 6.08147 17.6337 6.40003 17.82C7.09339 18.2089 7.87504 18.4132 8.67003 18.4132C9.46502 18.4132 10.2467 18.2089 10.94 17.82C11.262 17.6329 11.6277 17.5344 12 17.5344C12.3724 17.5344 12.7381 17.6329 13.06 17.82C13.7534 18.2089 14.535 18.4132 15.33 18.4132C16.125 18.4132 16.9067 18.2089 17.6 17.82C17.9186 17.6337 18.281 17.5355 18.65 17.5355C19.0191 17.5355 19.3815 17.6337 19.7 17.82C20.0135 18.0107 20.3494 18.1618 20.7 18.27C20.9546 18.3443 21.2283 18.3143 21.4609 18.1868C21.6934 18.0593 21.8658 17.8446 21.94 17.59C22.0143 17.3354 21.9844 17.0617 21.8568 16.8292C21.7293 16.5966 21.5146 16.4243 21.26 16.35L21.28 16.35ZM3.28003 8.27C3.63064 8.1618 3.96653 8.01065 4.28003 7.82C4.5986 7.6337 4.96099 7.53552 5.33003 7.53552C5.69907 7.53552 6.06147 7.6337 6.38003 7.82C7.07339 8.20893 7.85505 8.41319 8.65003 8.41319C9.44502 8.41319 10.2267 8.20893 10.92 7.82C11.242 7.63295 11.6077 7.53442 11.98 7.53442C12.3524 7.53442 12.7181 7.63295 13.04 7.82C13.7334 8.20893 14.515 8.41319 15.31 8.41319C16.105 8.41319 16.8867 8.20893 17.58 7.82C17.8986 7.63371 18.261 7.53552 18.63 7.53552C18.9991 7.53552 19.3615 7.63371 19.68 7.82C19.9935 8.01065 20.3294 8.1618 20.68 8.27C20.8061 8.30677 20.9382 8.31835 21.0687 8.30408C21.1993 8.2898 21.3257 8.24996 21.4409 8.18681C21.556 8.12367 21.6576 8.03846 21.7398 7.93606C21.822 7.83366 21.8833 7.71607 21.92 7.59C21.9568 7.46393 21.9684 7.33185 21.9541 7.20131C21.9398 7.07077 21.9 6.94431 21.8369 6.82917C21.7737 6.71402 21.6885 6.61244 21.5861 6.53023C21.4837 6.44801 21.3661 6.38677 21.24 6.35C21.0445 6.29258 20.8565 6.21201 20.68 6.11C20.0602 5.74007 19.3519 5.54475 18.63 5.54475C17.9082 5.54475 17.1999 5.74007 16.58 6.11C16.1896 6.33084 15.7486 6.4469 15.3 6.4469C14.8515 6.4469 14.4105 6.33084 14.02 6.11C13.3927 5.75131 12.6826 5.56262 11.96 5.56262C11.2374 5.56262 10.5273 5.75131 9.90004 6.11C9.50958 6.33084 9.06862 6.4469 8.62004 6.4469C8.17145 6.4469 7.73049 6.33084 7.34003 6.11C6.7063 5.74781 5.98995 5.55495 5.26003 5.55C4.55486 5.55145 3.86343 5.74506 3.26003 6.11C3.08358 6.21201 2.89559 6.29258 2.70003 6.35C2.44543 6.42426 2.23074 6.59662 2.10322 6.82917C1.9757 7.06171 1.94577 7.33539 2.02003 7.59C2.09429 7.84461 2.26665 8.05929 2.4992 8.18681C2.73174 8.31434 3.00543 8.34426 3.26003 8.27L3.28003 8.27ZM3.28003 13.27C3.63064 13.1618 3.96653 13.0107 4.28003 12.82C4.5986 12.6337 4.96099 12.5355 5.33003 12.5355C5.69907 12.5355 6.06147 12.6337 6.38003 12.82C7.07339 13.2089 7.85504 13.4132 8.65003 13.4132C9.44502 13.4132 10.2267 13.2089 10.92 12.82C11.242 12.6329 11.6077 12.5344 11.98 12.5344C12.3524 12.5344 12.7181 12.6329 13.04 12.82C13.7334 13.2089 14.515 13.4132 15.31 13.4132C16.105 13.4132 16.8867 13.2089 17.58 12.82C17.8986 12.6337 18.261 12.5355 18.63 12.5355C18.9991 12.5355 19.3615 12.6337 19.68 12.82C19.9935 13.0107 20.3294 13.1618 20.68 13.27C20.811 13.3194 20.9508 13.3408 21.0906 13.3328C21.2303 13.3248 21.3668 13.2875 21.4912 13.2234C21.6156 13.1593 21.7252 13.0698 21.8128 12.9607C21.9005 12.8516 21.9643 12.7253 22 12.59C22.0743 12.3354 22.0444 12.0617 21.9169 11.8292C21.7893 11.5966 21.5746 11.4243 21.32 11.35C21.1245 11.2926 20.9365 11.212 20.76 11.11C20.1402 10.7401 19.4319 10.5447 18.71 10.5447C17.9882 10.5447 17.2799 10.7401 16.66 11.11C16.2696 11.3308 15.8286 11.4469 15.38 11.4469C14.9315 11.4469 14.4905 11.3308 14.1 11.11C13.4727 10.7513 12.7626 10.5626 12.04 10.5626C11.3174 10.5626 10.6073 10.7513 9.98003 11.11C9.58958 11.3308 9.14862 11.4469 8.70003 11.4469C8.25145 11.4469 7.81049 11.3308 7.42003 11.11C6.78629 10.7478 6.06995 10.5549 5.34003 10.55C4.63486 10.5515 3.94342 10.7451 3.34003 11.11C3.16358 11.212 2.97559 11.2926 2.78003 11.35C2.52543 11.4243 2.31074 11.5966 2.18322 11.8292C2.0557 12.0617 2.02577 12.3354 2.10003 12.59C2.17429 12.8446 2.34666 13.0593 2.5792 13.1868C2.81175 13.3143 3.08542 13.3443 3.34003 13.27L3.28003 13.27Z" fill="white"/>
</svg>
