<svg width="24" height="24" viewBox="0 0 24 24" fill="none" xmlns="http://www.w3.org/2000/svg">
<path d="M12.375 3C11.6797 3.00276 11.0136 3.28021 10.5219 3.7719C10.0302 4.26358 9.75278 4.92966 9.75002 5.625C9.75002 7.0665 10.9335 8.25 12.375 8.25C13.8165 8.25 15 7.0665 15 5.625C15 4.1835 13.8165 3 12.375 3ZM12.375 4.5C13.005 4.5 13.5 4.995 13.5 5.625C13.5 6.255 13.005 6.75 12.375 6.75C11.745 6.75 11.25 6.255 11.25 5.625C11.25 4.995 11.745 4.5 12.375 4.5ZM8.32052 7.875C8.12499 7.86227 7.92867 7.87006 7.73477 7.89825C7.32735 7.96734 6.94632 8.14567 6.63227 8.41425C5.97677 8.97075 5.59577 9.85575 5.31977 11.1562C5.23277 11.5755 5.25902 12.009 5.46077 12.3517C5.66327 12.6945 5.97977 12.9022 6.25802 13.0312C6.81752 13.2893 7.36502 13.3387 7.66427 13.4062L8.01602 11.9528C7.56452 11.8508 7.10102 11.7682 6.89102 11.6722C6.78527 11.622 6.77102 11.5927 6.77327 11.6017C6.76186 11.5554 6.76186 11.5071 6.77327 11.4608C7.01327 10.3245 7.36202 9.77625 7.61702 9.5625C7.87202 9.34875 8.08277 9.3135 8.55452 9.4215L8.88302 7.9455C8.69793 7.90564 8.50971 7.88205 8.32052 7.875ZM9.63302 8.10975L8.53127 13.125C8.40827 13.6875 8.64002 14.2973 9.09377 14.6483L11.742 16.7108L12.3983 21H13.9223L13.2188 16.4767C13.1613 16.0961 12.9599 15.7519 12.6563 15.5153L10.008 13.4528L10.7813 9.96075L11.5545 10.1715L12.8903 11.4615C13.3245 11.88 13.9778 11.979 14.5313 11.742L15.75 11.2275V21H17.25V8.25H15.75V9.60975L13.9455 10.3823L12.609 9.09375C12.4261 8.91451 12.2001 8.78537 11.9528 8.71875L9.63302 8.10975ZM8.64827 15.4688L8.01527 17.367L6.14102 21H7.82852L9.35252 18.0705C9.39002 17.997 9.42302 17.9123 9.44627 17.8358L9.91502 16.4535L8.64827 15.4688Z" fill="white"/>
</svg>
