<svg width="24" height="24" viewBox="0 0 24 24" fill="none" xmlns="http://www.w3.org/2000/svg">
<path d="M13.125 10.125C13.125 12 12 14.625 12 14.625M12.375 10.875C12.375 10.875 13.5 7.875 10.875 5.625C8.25 3.375 4.125 4.125 4.125 4.125C4.125 4.125 4.125 7.125 6.375 9.375C8.625 11.625 12.375 10.875 12.375 10.875ZM13.875 8.625C13.875 8.625 12.75 5.625 15.375 3.375C18 1.125 22.125 1.875 22.125 1.875C22.125 1.875 22.125 4.875 19.875 7.125C17.625 9.375 13.875 8.625 13.875 8.625ZM7.875 13.875H17.625C17.625 13.875 18.375 20.625 12.75 20.625C7.125 20.625 7.875 13.875 7.875 13.875Z" stroke="white" stroke-width="1.5" stroke-linecap="round" stroke-linejoin="round"/>
</svg>
