<svg width="24" height="24" viewBox="0 0 24 24" fill="none" xmlns="http://www.w3.org/2000/svg">
<path d="M1.935 15C1.46939 13.4332 1.37602 11.7792 1.66231 10.17C1.94861 8.56067 2.60667 7.04044 3.58409 5.73032C4.56152 4.42019 5.83132 3.35636 7.29239 2.62351C8.75345 1.89067 10.3654 1.50905 12 1.50905C13.6346 1.50905 15.2465 1.89067 16.7076 2.62351C18.1687 3.35636 19.4385 4.42019 20.4159 5.73032C21.3933 7.04044 22.0514 8.56067 22.3377 10.17C22.624 11.7792 22.5306 13.4332 22.065 15H20.49C20.9686 13.6427 21.1147 12.1904 20.9161 10.765C20.7175 9.33958 20.18 7.98257 19.3486 6.80781C18.5172 5.63305 17.4162 4.67481 16.1379 4.01348C14.8597 3.35214 13.4414 3.00699 12.0023 3.00699C10.5631 3.00699 9.14484 3.35214 7.86659 4.01348C6.58834 4.67481 5.48733 5.63305 4.65592 6.80781C3.82452 7.98257 3.28696 9.33958 3.08836 10.765C2.88975 12.1904 3.03589 13.6427 3.5145 15H1.935ZM0.75 16.5H23.25C23.75 16.5 24 16.75 24 17.25C24 17.75 23.75 18 23.25 18H0.75C0.25 18 0 17.75 0 17.25C0 16.75 0.25 16.5 0.75 16.5ZM6.75 19.5H17.25C17.75 19.5 18 19.75 18 20.25C18 20.75 17.75 21 17.25 21H6.75C6.25 21 6 20.75 6 20.25C6 19.75 6.25 19.5 6.75 19.5Z" fill="white"/>
</svg>
