<svg width="24" height="24" viewBox="0 0 24 24" fill="none" xmlns="http://www.w3.org/2000/svg">
<path d="M22.4001 1.6H8.0001C6.72706 1.6 5.50616 2.10571 4.60598 3.00589C3.70581 3.90606 3.2001 5.12696 3.2001 6.4V14.208C2.40614 14.7384 1.85542 15.5625 1.66909 16.499C1.48275 17.4355 1.67606 18.4076 2.2065 19.2016C2.73693 19.9956 3.56103 20.5463 4.49751 20.7326C5.434 20.9189 6.40614 20.7256 7.2001 20.1952C7.83829 20.6221 8.59639 20.8334 9.36338 20.7983C10.1304 20.7632 10.866 20.4834 11.4625 20H12.0273C12.6361 20.3828 13.3176 20.6353 14.0289 20.7413C14.7401 20.8473 15.4657 20.8047 16.1596 20.616C16.8536 20.4274 17.5009 20.0969 18.0606 19.6453C18.6203 19.1938 19.0803 18.6311 19.4114 17.9927C19.7426 17.3544 19.9377 16.6543 19.9846 15.9367C20.0314 15.2191 19.9288 14.4996 19.6834 13.8236C19.438 13.1476 19.0551 12.5299 18.5588 12.0095C18.0625 11.489 17.4636 11.0772 16.8001 10.8V8C16.8001 7.15131 17.1372 6.33737 17.7374 5.73726C18.3375 5.13714 19.1514 4.8 20.0001 4.8H22.4001V1.6ZM18.4001 15.6C18.4 16.2796 18.2076 16.9452 17.8451 17.5201C17.4826 18.0949 16.9649 18.5553 16.3516 18.8482C15.7384 19.1411 15.0548 19.2544 14.3799 19.1751C13.705 19.0958 13.0663 18.8271 12.5377 18.4H10.8001C10.6142 18.649 10.3728 18.8511 10.095 18.9904C9.81724 19.1296 9.51081 19.2021 9.2001 19.2021C8.88938 19.2021 8.58295 19.1296 8.30519 18.9904C8.02743 18.8511 7.78599 18.649 7.60009 18.4H6.8001C6.60572 18.659 6.35136 18.8669 6.05887 19.0059C5.76638 19.1449 5.44452 19.2108 5.12094 19.1979C4.79737 19.1851 4.48176 19.0938 4.20124 18.932C3.92072 18.7702 3.68368 18.5427 3.5105 18.2691C3.33731 17.9955 3.23316 17.6839 3.207 17.3611C3.18083 17.0383 3.23343 16.714 3.36028 16.4161C3.48713 16.1181 3.68443 15.8554 3.93523 15.6506C4.18603 15.4457 4.48282 15.3048 4.8001 15.24V9.2C4.8001 8.88174 4.92652 8.57652 5.15157 8.35147C5.37661 8.12643 5.68184 8 6.0001 8C6.31836 8 6.62358 8.12643 6.84862 8.35147C7.07367 8.57652 7.2001 8.88174 7.2001 9.2V14.4C7.2001 14.6122 7.28438 14.8157 7.43441 14.9657C7.58444 15.1157 7.78792 15.2 8.0001 15.2C8.21227 15.2 8.41575 15.1157 8.56578 14.9657C8.71581 14.8157 8.8001 14.6122 8.8001 14.4V10.8C8.8001 10.4817 8.92652 10.1765 9.15157 9.95147C9.37661 9.72643 9.68184 9.6 10.0001 9.6C10.3184 9.6 10.6236 9.72643 10.8486 9.95147C11.0737 10.1765 11.2001 10.4817 11.2001 10.8V14.4C11.2001 14.6122 11.2844 14.8157 11.4344 14.9657C11.5844 15.1157 11.7879 15.2 12.0001 15.2C12.2123 15.2 12.4158 15.1157 12.5658 14.9657C12.7158 14.8157 12.8001 14.6122 12.8001 14.4V9.2C12.8001 8.88174 12.9265 8.57652 13.1516 8.35147C13.3766 8.12643 13.6818 8 14.0001 8C14.3184 8 14.6236 8.12643 14.8486 8.35147C15.0737 8.57652 15.2001 8.88174 15.2001 9.2V12.0224C16.0801 12.1208 16.893 12.5401 17.4833 13.2001C18.0737 13.8601 18.4001 14.7145 18.4001 15.6Z" fill="white"/>
</svg>
