<svg width="36" height="36" viewBox="0 0 36 36" fill="none" xmlns="http://www.w3.org/2000/svg">
<path d="M33.2615 2.40002H12.0769C10.204 2.40002 8.40791 3.15859 7.08362 4.50885C5.75932 5.85911 5.01534 7.69046 5.01534 9.60002V21.312C3.84731 22.1077 3.03712 23.3438 2.76299 24.7485C2.48886 26.1533 2.77325 27.6115 3.5536 28.8024C4.33395 29.9933 5.54633 30.8194 6.92404 31.0989C8.30175 31.3784 9.73193 31.0884 10.9 30.2928C11.8388 30.9331 12.9541 31.2501 14.0825 31.1974C15.2109 31.1448 16.2931 30.7251 17.1706 30H18.0015C18.8971 30.5743 19.8998 30.9529 20.9462 31.1119C21.9926 31.271 23.0599 31.207 24.0808 30.924C25.1017 30.6411 26.054 30.1453 26.8774 29.468C27.7008 28.7907 28.3775 27.9466 28.8647 26.9891C29.3519 26.0316 29.639 24.9814 29.7079 23.905C29.7768 22.8286 29.6259 21.7493 29.2649 20.7354C28.9039 19.7214 28.3405 18.7949 27.6104 18.0142C26.8802 17.2336 25.9992 16.6158 25.0231 16.2V12C25.0231 10.727 25.519 9.50608 26.4019 8.60591C27.2848 7.70573 28.4822 7.20002 29.7307 7.20002H33.2615V2.40002ZM27.3769 23.4C27.3768 24.4194 27.0938 25.4179 26.5605 26.2801C26.0272 27.1423 25.2654 27.833 24.3633 28.2723C23.4612 28.7117 22.4555 28.8817 21.4626 28.7627C20.4697 28.6437 19.5301 28.2406 18.7524 27.6H16.1961C15.9226 27.9735 15.5674 28.2767 15.1588 28.4856C14.7502 28.6944 14.2994 28.8032 13.8423 28.8032C13.3852 28.8032 12.9344 28.6944 12.5257 28.4856C12.1171 28.2767 11.7619 27.9735 11.4884 27.6H10.3115C10.0255 27.9885 9.65133 28.3004 9.22104 28.5089C8.79074 28.7174 8.31723 28.8162 7.8412 28.7969C7.36517 28.7776 6.90086 28.6407 6.48818 28.398C6.07549 28.1553 5.72677 27.8141 5.47199 27.4037C5.21721 26.9932 5.06398 26.5258 5.02549 26.0417C4.987 25.5575 5.06438 25.0711 5.251 24.6241C5.43761 24.1772 5.72787 23.7832 6.09684 23.4759C6.4658 23.1686 6.90242 22.9572 7.36919 22.86V13.8C7.36919 13.3226 7.55518 12.8648 7.88626 12.5272C8.21733 12.1897 8.66636 12 9.13457 12C9.60278 12 10.0518 12.1897 10.3829 12.5272C10.714 12.8648 10.9 13.3226 10.9 13.8V21.6C10.9 21.9183 11.024 22.2235 11.2447 22.4485C11.4654 22.6736 11.7647 22.8 12.0769 22.8C12.389 22.8 12.6884 22.6736 12.9091 22.4485C13.1298 22.2235 13.2538 21.9183 13.2538 21.6V16.2C13.2538 15.7226 13.4398 15.2648 13.7709 14.9272C14.102 14.5897 14.551 14.4 15.0192 14.4C15.4874 14.4 15.9364 14.5897 16.2675 14.9272C16.5986 15.2648 16.7846 15.7226 16.7846 16.2V21.6C16.7846 21.9183 16.9086 22.2235 17.1293 22.4485C17.35 22.6736 17.6494 22.8 17.9615 22.8C18.2736 22.8 18.573 22.6736 18.7937 22.4485C19.0144 22.2235 19.1384 21.9183 19.1384 21.6V13.8C19.1384 13.3226 19.3244 12.8648 19.6555 12.5272C19.9866 12.1897 20.4356 12 20.9038 12C21.372 12 21.8211 12.1897 22.1521 12.5272C22.4832 12.8648 22.6692 13.3226 22.6692 13.8V18.0336C23.9638 18.1812 25.1597 18.8101 26.0282 19.8001C26.8967 20.7901 27.3769 22.0718 27.3769 23.4V23.4Z" fill="#6597CA"/>
</svg>
