<svg width="36" height="36" viewBox="0 0 36 36" fill="none" xmlns="http://www.w3.org/2000/svg">
<path d="M33.101 12.375H31.2942L30.4667 6.42656C30.3906 5.89229 30.1286 5.40373 29.7285 5.05005C29.3285 4.69637 28.817 4.50114 28.2876 4.5H7.02019C6.49069 4.50114 5.97925 4.69637 5.5792 5.05005C5.17915 5.40373 4.91716 5.89229 4.84104 6.42656L4.01352 12.375H2.20676C1.91413 12.375 1.63348 12.4935 1.42656 12.7045C1.21964 12.9155 1.10339 13.2016 1.10339 13.5C1.10339 13.7984 1.21964 14.0845 1.42656 14.2955C1.63348 14.5065 1.91413 14.625 2.20676 14.625H3.86181V29.25C3.86181 29.8467 4.0943 30.419 4.50814 30.841C4.92198 31.2629 5.48328 31.5 6.06854 31.5H9.37863C9.96389 31.5 10.5252 31.2629 10.939 30.841C11.3529 30.419 11.5854 29.8467 11.5854 29.25V25.875H23.7224V29.25C23.7224 29.8467 23.9549 30.419 24.3687 30.841C24.7826 31.2629 25.3438 31.5 25.9291 31.5H29.2392C29.8245 31.5 30.3858 31.2629 30.7996 30.841C31.2134 30.419 31.4459 29.8467 31.4459 29.25V14.625H33.101C33.3936 14.625 33.6743 14.5065 33.8812 14.2955C34.0881 14.0845 34.2043 13.7984 34.2043 13.5C34.2043 13.2016 34.0881 12.9155 33.8812 12.7045C33.6743 12.4935 33.3936 12.375 33.101 12.375ZM7.02019 6.75H28.2876L29.0737 12.375H6.23404L7.02019 6.75ZM9.37863 29.25H6.06854V25.875H9.37863V29.25ZM25.9291 29.25V25.875H29.2392V29.25H25.9291ZM29.2392 23.625H20.964V18C20.964 17.7016 20.8477 17.4155 20.6408 17.2045C20.4339 16.9935 20.1532 16.875 19.8606 16.875C19.568 16.875 19.2873 16.9935 19.0804 17.2045C18.8735 17.4155 18.7572 17.7016 18.7572 18V23.625H16.5505V18C16.5505 17.7016 16.4343 17.4155 16.2273 17.2045C16.0204 16.9935 15.7398 16.875 15.4471 16.875C15.1545 16.875 14.8739 16.9935 14.6669 17.2045C14.46 17.4155 14.3438 17.7016 14.3438 18V23.625H6.06854V14.625H29.2392V23.625ZM8.27527 18.5625C8.27527 18.2287 8.37233 17.9025 8.55419 17.625C8.73605 17.3475 8.99453 17.1312 9.29695 17.0035C9.59938 16.8757 9.93215 16.8423 10.2532 16.9074C10.5742 16.9725 10.8691 17.1333 11.1006 17.3693C11.3321 17.6053 11.4897 17.9059 11.5536 18.2333C11.6174 18.5606 11.5846 18.8999 11.4594 19.2083C11.3341 19.5166 11.122 19.7802 10.8498 19.9656C10.5776 20.151 10.2577 20.25 9.93031 20.25C9.49137 20.25 9.0704 20.0722 8.76002 19.7557C8.44964 19.4393 8.27527 19.0101 8.27527 18.5625ZM23.7224 18.5625C23.7224 18.2287 23.8194 17.9025 24.0013 17.625C24.1832 17.3475 24.4416 17.1312 24.7441 17.0035C25.0465 16.8757 25.3793 16.8423 25.7003 16.9074C26.0214 16.9725 26.3163 17.1333 26.5477 17.3693C26.7792 17.6053 26.9368 17.9059 27.0007 18.2333C27.0645 18.5606 27.0318 18.8999 26.9065 19.2083C26.7812 19.5166 26.5691 19.7802 26.2969 19.9656C26.0247 20.151 25.7048 20.25 25.3774 20.25C24.9385 20.25 24.5175 20.0722 24.2071 19.7557C23.8967 19.4393 23.7224 19.0101 23.7224 18.5625Z" fill="#5271B3"/>
</svg>
