<svg width="37" height="36" viewBox="0 0 37 36" fill="none" xmlns="http://www.w3.org/2000/svg">
<path d="M32.2277 24.525C31.9343 24.4388 31.6523 24.318 31.3877 24.165C30.4579 23.6101 29.3954 23.3171 28.3127 23.3171C27.2299 23.3171 26.1674 23.6101 25.2377 24.165C24.652 24.4962 23.9905 24.6703 23.3177 24.6703C22.6448 24.6703 21.9834 24.4962 21.3977 24.165C20.4567 23.6269 19.3916 23.3439 18.3077 23.3439C17.2238 23.3439 16.1586 23.6269 15.2177 24.165C14.632 24.4962 13.9705 24.6703 13.2977 24.6703C12.6248 24.6703 11.9634 24.4962 11.3777 24.165C10.4271 23.6217 9.35254 23.3324 8.25766 23.325C7.19991 23.3271 6.16275 23.6176 5.25766 24.165C4.99299 24.318 4.71099 24.4388 4.41766 24.525C4.03575 24.6364 3.71373 24.8949 3.52244 25.2437C3.33116 25.5925 3.28627 26.0031 3.39766 26.385C3.50905 26.7669 3.7676 27.0889 4.11641 27.2802C4.46523 27.4715 4.87575 27.5164 5.25766 27.405C5.78358 27.2427 6.2874 27.016 6.75766 26.73C7.23551 26.4505 7.77911 26.3033 8.33266 26.3033C8.88622 26.3033 9.42982 26.4505 9.90767 26.73C10.9477 27.3134 12.1202 27.6197 13.3127 27.6197C14.5052 27.6197 15.6776 27.3134 16.7177 26.73C17.2006 26.4494 17.7492 26.3016 18.3077 26.3016C18.8662 26.3016 19.4147 26.4494 19.8977 26.73C20.9377 27.3134 22.1102 27.6197 23.3027 27.6198C24.4952 27.6198 25.6676 27.3134 26.7077 26.73C27.1855 26.4505 27.7291 26.3033 28.2827 26.3033C28.8362 26.3033 29.3798 26.4505 29.8577 26.73C30.3279 27.016 30.8318 27.2427 31.3577 27.405C31.7396 27.5164 32.1501 27.4715 32.4989 27.2802C32.8477 27.0889 33.1063 26.7669 33.2177 26.385C33.3291 26.0031 33.2842 25.5925 33.0929 25.2437C32.9016 24.8949 32.5796 24.6364 32.1977 24.525L32.2277 24.525ZM5.22766 12.405C5.75358 12.2427 6.25741 12.0159 6.72767 11.73C7.20552 11.4505 7.74911 11.3033 8.30266 11.3033C8.85622 11.3033 9.39982 11.4505 9.87767 11.73C10.9177 12.3134 12.0902 12.6197 13.2827 12.6197C14.4752 12.6197 15.6476 12.3134 16.6877 11.73C17.1706 11.4494 17.7192 11.3016 18.2777 11.3016C18.8362 11.3016 19.3848 11.4494 19.8677 11.73C20.9077 12.3134 22.0802 12.6197 23.2727 12.6198C24.4652 12.6198 25.6376 12.3134 26.6777 11.73C27.1555 11.4505 27.6991 11.3033 28.2527 11.3033C28.8062 11.3033 29.3498 11.4505 29.8277 11.73C30.2979 12.016 30.8018 12.2427 31.3277 12.405C31.5168 12.4601 31.7149 12.4775 31.9107 12.4561C32.1065 12.4347 32.2962 12.3749 32.4689 12.2802C32.6416 12.1855 32.794 12.0577 32.9173 11.9041C33.0407 11.7505 33.1325 11.5741 33.1877 11.385C33.2428 11.1959 33.2602 10.9978 33.2388 10.8019C33.2174 10.6061 33.1576 10.4164 33.0629 10.2437C32.9682 10.071 32.8404 9.91864 32.6868 9.79531C32.5332 9.67199 32.3568 9.58013 32.1677 9.52497C31.8743 9.43884 31.5923 9.31798 31.3277 9.16497C30.398 8.61007 29.3354 8.31709 28.2527 8.31709C27.1699 8.31709 26.1074 8.61007 25.1777 9.16497C24.592 9.49623 23.9306 9.67033 23.2577 9.67033C22.5848 9.67033 21.9234 9.49623 21.3377 9.16497C20.3967 8.62693 19.3316 8.34391 18.2477 8.34391C17.1638 8.3439 16.0986 8.62693 15.1577 9.16497C14.572 9.49623 13.9105 9.67033 13.2377 9.67033C12.5648 9.67033 11.9034 9.49623 11.3177 9.16497C10.3671 8.62169 9.29254 8.33239 8.19767 8.32497C7.13991 8.32715 6.10275 8.61755 5.19766 9.16497C4.93299 9.31798 4.651 9.43883 4.35767 9.52497C3.97575 9.63636 3.65373 9.8949 3.46244 10.2437C3.27116 10.5925 3.22627 11.0031 3.33766 11.385C3.44906 11.7669 3.7076 12.0889 4.05641 12.2802C4.40523 12.4715 4.81575 12.5164 5.19766 12.405L5.22766 12.405ZM5.22766 19.905C5.75358 19.7427 6.25741 19.5159 6.72766 19.23C7.20551 18.9505 7.74911 18.8033 8.30266 18.8033C8.85622 18.8033 9.39982 18.9505 9.87766 19.23C10.9177 19.8134 12.0902 20.1197 13.2827 20.1197C14.4752 20.1197 15.6476 19.8134 16.6877 19.23C17.1706 18.9494 17.7192 18.8016 18.2777 18.8016C18.8362 18.8016 19.3847 18.9494 19.8677 19.23C20.9077 19.8134 22.0802 20.1197 23.2727 20.1197C24.4652 20.1197 25.6376 19.8134 26.6777 19.23C27.1555 18.9505 27.6991 18.8033 28.2527 18.8033C28.8062 18.8033 29.3498 18.9505 29.8277 19.23C30.2979 19.516 30.8018 19.7427 31.3277 19.905C31.5241 19.9791 31.7339 20.0112 31.9435 19.9992C32.1531 19.9872 32.3578 19.9313 32.5444 19.8351C32.731 19.739 32.8954 19.6047 33.0269 19.4411C33.1584 19.2774 33.254 19.0879 33.3077 18.885C33.4191 18.5031 33.3742 18.0925 33.1829 17.7437C32.9916 17.3949 32.6696 17.1364 32.2877 17.025C31.9943 16.9388 31.7123 16.818 31.4477 16.665C30.5179 16.1101 29.4554 15.8171 28.3727 15.8171C27.2899 15.8171 26.2274 16.1101 25.2977 16.665C24.712 16.9962 24.0506 17.1703 23.3777 17.1703C22.7048 17.1703 22.0434 16.9962 21.4577 16.665C20.5167 16.1269 19.4516 15.8439 18.3677 15.8439C17.2838 15.8439 16.2186 16.1269 15.2777 16.665C14.692 16.9962 14.0305 17.1703 13.3577 17.1703C12.6848 17.1703 12.0234 16.9962 11.4377 16.665C10.4871 16.1217 9.41254 15.8324 8.31766 15.825C7.25991 15.8271 6.22275 16.1176 5.31766 16.665C5.05299 16.818 4.771 16.9388 4.47766 17.025C4.09575 17.1364 3.77373 17.3949 3.58244 17.7437C3.39116 18.0925 3.34627 18.5031 3.45766 18.885C3.56905 19.2669 3.8276 19.5889 4.17642 19.7802C4.52523 19.9715 4.93575 20.0164 5.31766 19.905L5.22766 19.905Z" fill="#6597CA"/>
</svg>
