<svg width="37" height="36" viewBox="0 0 37 36" fill="none" xmlns="http://www.w3.org/2000/svg">
<path d="M20.3027 15.1875C20.3027 18 18.6152 21.9375 18.6152 21.9375M19.1777 16.3125C19.1777 16.3125 20.8652 11.8125 16.9277 8.43751C12.9902 5.06251 6.80273 6.18751 6.80273 6.18751C6.80273 6.18751 6.80273 10.6875 10.1777 14.0625C13.5527 17.4375 19.1777 16.3125 19.1777 16.3125ZM21.4277 12.9375C21.4277 12.9375 19.7402 8.43751 23.6777 5.06251C27.6152 1.68751 33.8027 2.81251 33.8027 2.81251C33.8027 2.81251 33.8027 7.31251 30.4277 10.6875C27.0527 14.0625 21.4277 12.9375 21.4277 12.9375ZM12.4277 20.8125H27.0527C27.0527 20.8125 28.1777 30.9375 19.7402 30.9375C11.3027 30.9375 12.4277 20.8125 12.4277 20.8125Z" stroke="#7BAE23" stroke-width="2.5" stroke-linecap="round" stroke-linejoin="round"/>
</svg>
