<svg width="36" height="36" viewBox="0 0 36 36" fill="none" xmlns="http://www.w3.org/2000/svg">
<path d="M32.4523 26.205L25.0966 14.205C24.9646 13.9879 24.7805 13.8088 24.5617 13.6846C24.3429 13.5604 24.0965 13.4952 23.8461 13.4952C23.5956 13.4952 23.3493 13.5604 23.1305 13.6846C22.9116 13.8088 22.7275 13.9879 22.5956 14.205L21.1244 16.65L16.2844 8.25C16.1541 8.02617 15.969 7.84074 15.7471 7.71195C15.5253 7.58316 15.2744 7.51544 15.0192 7.51544C14.7639 7.51544 14.513 7.58316 14.2912 7.71195C14.0694 7.84074 13.8842 8.02617 13.754 8.25L3.4559 26.25C3.32715 26.4774 3.25918 26.7352 3.25879 26.9977C3.2584 27.2603 3.3256 27.5183 3.45367 27.7461C3.58175 27.9739 3.76621 28.1634 3.98862 28.2956C4.21103 28.4279 4.4636 28.4984 4.72109 28.5H31.2018C31.4647 28.5005 31.7229 28.4292 31.9496 28.2936C32.1763 28.1579 32.3632 27.9627 32.4908 27.7285C32.6185 27.4942 32.6822 27.2293 32.6755 26.9614C32.6687 26.6934 32.5916 26.4323 32.4523 26.205ZM15.6812 25.5H7.2809L15.0192 12L19.3296 19.5L15.6812 25.5ZM19.1384 25.5L22.3749 20.355L23.8461 17.835L28.5538 25.5H19.1384Z" fill="#A23687"/>
</svg>
