<svg width="36" height="36" viewBox="0 0 36 36" fill="none" xmlns="http://www.w3.org/2000/svg">
<path d="M19.8606 8.25C21.4789 8.25 22.8029 6.9 22.8029 5.25C22.8029 3.6 21.4789 2.25 19.8606 2.25C18.2423 2.25 16.9183 3.6 16.9183 5.25C16.9183 6.9 18.2423 8.25 19.8606 8.25ZM25.7452 16.17C23.9357 15.615 22.4793 14.415 21.626 12.9L20.1548 10.5C19.5517 9.52501 18.5218 9 17.4479 9C16.3004 9 15.1088 9.75001 14.8293 11.16C14.5497 12.57 10.2981 34.5 10.2981 34.5H13.3875L16.0356 22.5L19.125 25.5V34.5H22.0673V23.25L18.9779 20.25L19.8606 15.75C21.3318 17.475 23.4061 18.765 25.7452 19.26V34.5H27.9519V13.5H25.7452V16.17V16.17ZM10.9307 19.695L6.37012 18.795L8.34146 8.49L12.9462 9.40501L10.9307 19.695V19.695Z" fill="#A23687"/>
</svg>
