<svg width="37" height="36" viewBox="0 0 37 36" fill="none" xmlns="http://www.w3.org/2000/svg">
<path d="M18.6152 7.5V6M5.11523 19.5H6.61523H5.11523ZM30.6152 19.5H32.1152H30.6152ZM9.01523 9.9L10.0652 10.95L9.01523 9.9ZM28.2152 9.9L27.1652 10.95L28.2152 9.9ZM12.6152 19.5C12.6152 17.9087 13.2474 16.3826 14.3726 15.2574C15.4978 14.1321 17.0239 13.5 18.6152 13.5C20.2065 13.5 21.7327 14.1321 22.8579 15.2574C23.9831 16.3826 24.6152 17.9087 24.6152 19.5H12.6152ZM5.11523 25.5H32.1152H5.11523ZM11.1152 30H18.6152H11.1152ZM24.6152 30H26.1152H24.6152Z" stroke="#E0374F" stroke-width="2" stroke-linecap="round" stroke-linejoin="round"/>
</svg>
