<svg width="32" height="32" viewBox="0 0 32 32" fill="none" xmlns="http://www.w3.org/2000/svg">
<path d="M18 7.33334C19.4667 7.33334 20.6667 6.13334 20.6667 4.66667C20.6667 3.2 19.4667 2 18 2C16.5333 2 15.3333 3.2 15.3333 4.66667C15.3333 6.13334 16.5333 7.33334 18 7.33334ZM23.3333 14.3733C21.6933 13.88 20.3733 12.8133 19.6 11.4667L18.2667 9.33334C17.72 8.46667 16.7866 8 15.8133 8C14.7733 8 13.6933 8.66667 13.44 9.92C13.1866 11.1733 9.33332 30.6667 9.33332 30.6667H12.1333L14.5333 20L17.3333 22.6667V30.6667H20V20.6667L17.2 18L18 14C19.3333 15.5333 21.2133 16.68 23.3333 17.12V30.6667H25.3333V12H23.3333V14.3733ZM9.90665 17.5067L5.77332 16.7067L7.55998 7.54667L11.7333 8.36L9.90665 17.5067Z" fill="white"/>
</svg>
