<svg width="32" height="32" viewBox="0 0 32 32" fill="none" xmlns="http://www.w3.org/2000/svg">
<path d="M29.1334 23.2933L22.4668 12.6267C22.3472 12.4337 22.1803 12.2745 21.982 12.1641C21.7837 12.0537 21.5604 11.9957 21.3334 11.9957C21.1065 11.9957 20.8832 12.0537 20.6849 12.1641C20.4866 12.2745 20.3197 12.4337 20.2001 12.6267L18.8668 14.8L14.4801 7.33333C14.3621 7.13437 14.1943 6.96955 13.9932 6.85507C13.7922 6.74059 13.5648 6.68039 13.3335 6.68039C13.1021 6.68039 12.8747 6.74059 12.6737 6.85507C12.4726 6.96955 12.3048 7.13437 12.1868 7.33333L2.85345 23.3333C2.73676 23.5354 2.67516 23.7646 2.67481 23.998C2.67445 24.2314 2.73536 24.4607 2.85143 24.6632C2.96751 24.8656 3.13469 25.0341 3.33626 25.1517C3.53784 25.2693 3.76675 25.3319 4.00012 25.3333H28.0001C28.2383 25.3338 28.4724 25.2704 28.6778 25.1498C28.8833 25.0292 29.0526 24.8558 29.1683 24.6475C29.284 24.4393 29.3418 24.2038 29.3357 23.9657C29.3295 23.7275 29.2597 23.4953 29.1334 23.2933ZM13.9334 22.6667H6.32012L13.3335 10.6667L17.2401 17.3333L13.9334 22.6667ZM17.0668 22.6667L20.0001 18.0933L21.3334 15.8533L25.6001 22.6667H17.0668Z" fill="#121212"/>
</svg>
