<svg width="37" height="36" viewBox="0 0 37 36" fill="none" xmlns="http://www.w3.org/2000/svg">
<path d="M32.2662 24.525C31.9729 24.4388 31.6909 24.318 31.4262 24.165C30.4965 23.6101 29.434 23.3171 28.3512 23.3171C27.2685 23.3171 26.206 23.6101 25.2762 24.165C24.6906 24.4962 24.0291 24.6703 23.3562 24.6703C22.6834 24.6703 22.0219 24.4962 21.4362 24.165C20.4953 23.6269 19.4302 23.3439 18.3462 23.3439C17.2623 23.3439 16.1972 23.6269 15.2562 24.165C14.6706 24.4962 14.0091 24.6703 13.3362 24.6703C12.6634 24.6703 12.0019 24.4962 11.4162 24.165C10.4656 23.6217 9.39112 23.3324 8.29624 23.325C7.23848 23.3271 6.20132 23.6176 5.29624 24.165C5.03157 24.318 4.74957 24.4388 4.45624 24.525C4.07432 24.6364 3.75231 24.8949 3.56102 25.2437C3.36973 25.5925 3.32484 26.0031 3.43624 26.385C3.54763 26.7669 3.80617 27.0889 4.15499 27.2802C4.50381 27.4715 4.91432 27.5164 5.29624 27.405C5.82215 27.2427 6.32598 27.016 6.79624 26.73C7.27409 26.4505 7.81768 26.3033 8.37124 26.3033C8.9248 26.3033 9.46839 26.4505 9.94624 26.73C10.9863 27.3134 12.1588 27.6197 13.3512 27.6197C14.5437 27.6197 15.7162 27.3134 16.7562 26.73C17.2392 26.4494 17.7877 26.3016 18.3462 26.3016C18.9048 26.3016 19.4533 26.4494 19.9362 26.73C20.9763 27.3134 22.1488 27.6197 23.3412 27.6198C24.5337 27.6198 25.7062 27.3134 26.7462 26.73C27.2241 26.4505 27.7677 26.3033 28.3212 26.3033C28.8748 26.3033 29.4184 26.4505 29.8962 26.73C30.3665 27.016 30.8703 27.2427 31.3962 27.405C31.7782 27.5164 32.1887 27.4715 32.5375 27.2802C32.8863 27.0889 33.1449 26.7669 33.2562 26.385C33.3676 26.0031 33.3228 25.5925 33.1315 25.2437C32.9402 24.8949 32.6182 24.6364 32.2362 24.525L32.2662 24.525ZM5.26624 12.405C5.79216 12.2427 6.29598 12.0159 6.76624 11.73C7.24409 11.4505 7.78768 11.3033 8.34124 11.3033C8.8948 11.3033 9.43839 11.4505 9.91624 11.73C10.9563 12.3134 12.1288 12.6197 13.3212 12.6197C14.5137 12.6197 15.6862 12.3134 16.7262 11.73C17.2092 11.4494 17.7577 11.3016 18.3162 11.3016C18.8748 11.3016 19.4233 11.4494 19.9062 11.73C20.9463 12.3134 22.1188 12.6197 23.3112 12.6198C24.5037 12.6198 25.6762 12.3134 26.7162 11.73C27.1941 11.4505 27.7377 11.3033 28.2912 11.3033C28.8448 11.3033 29.3884 11.4505 29.8662 11.73C30.3365 12.016 30.8403 12.2427 31.3662 12.405C31.5554 12.4601 31.7535 12.4775 31.9493 12.4561C32.1451 12.4347 32.3348 12.3749 32.5075 12.2802C32.6802 12.1855 32.8326 12.0577 32.9559 11.9041C33.0792 11.7505 33.1711 11.5741 33.2262 11.385C33.2814 11.1959 33.2988 10.9978 33.2774 10.8019C33.256 10.6061 33.1962 10.4164 33.1015 10.2437C33.0068 10.071 32.8789 9.91864 32.7253 9.79531C32.5717 9.67199 32.3954 9.58013 32.2062 9.52497C31.9129 9.43884 31.6309 9.31798 31.3662 9.16497C30.4365 8.61007 29.374 8.31709 28.2912 8.31709C27.2085 8.31709 26.146 8.61007 25.2162 9.16497C24.6306 9.49623 23.9691 9.67033 23.2962 9.67033C22.6234 9.67033 21.9619 9.49623 21.3762 9.16497C20.4353 8.62693 19.3702 8.34391 18.2862 8.34391C17.2023 8.3439 16.1372 8.62693 15.1962 9.16497C14.6106 9.49623 13.9491 9.67033 13.2762 9.67033C12.6034 9.67033 11.9419 9.49623 11.3562 9.16497C10.4056 8.62169 9.33112 8.33239 8.23624 8.32497C7.17849 8.32715 6.14133 8.61755 5.23624 9.16497C4.97157 9.31798 4.68957 9.43883 4.39624 9.52497C4.01433 9.63636 3.69231 9.8949 3.50102 10.2437C3.30973 10.5925 3.26485 11.0031 3.37624 11.385C3.48763 11.7669 3.74617 12.0889 4.09499 12.2802C4.44381 12.4715 4.85433 12.5164 5.23624 12.405L5.26624 12.405ZM5.26624 19.905C5.79216 19.7427 6.29598 19.5159 6.76624 19.23C7.24409 18.9505 7.78768 18.8033 8.34124 18.8033C8.8948 18.8033 9.43839 18.9505 9.91624 19.23C10.9563 19.8134 12.1288 20.1197 13.3212 20.1197C14.5137 20.1197 15.6862 19.8134 16.7262 19.23C17.2092 18.9494 17.7577 18.8016 18.3162 18.8016C18.8748 18.8016 19.4233 18.9494 19.9062 19.23C20.9463 19.8134 22.1188 20.1197 23.3112 20.1197C24.5037 20.1197 25.6762 19.8134 26.7162 19.23C27.1941 18.9505 27.7377 18.8033 28.2912 18.8033C28.8448 18.8033 29.3884 18.9505 29.8662 19.23C30.3365 19.516 30.8403 19.7427 31.3662 19.905C31.5627 19.9791 31.7724 20.0112 31.982 19.9992C32.1916 19.9872 32.3964 19.9313 32.583 19.8351C32.7696 19.739 32.934 19.6047 33.0655 19.4411C33.1969 19.2774 33.2926 19.0879 33.3462 18.885C33.4576 18.5031 33.4128 18.0925 33.2215 17.7437C33.0302 17.3949 32.7082 17.1364 32.3262 17.025C32.0329 16.9388 31.7509 16.818 31.4862 16.665C30.5565 16.1101 29.494 15.8171 28.4112 15.8171C27.3285 15.8171 26.266 16.1101 25.3362 16.665C24.7506 16.9962 24.0891 17.1703 23.4162 17.1703C22.7434 17.1703 22.0819 16.9962 21.4962 16.665C20.5553 16.1269 19.4902 15.8439 18.4062 15.8439C17.3223 15.8439 16.2572 16.1269 15.3162 16.665C14.7306 16.9962 14.0691 17.1703 13.3962 17.1703C12.7234 17.1703 12.0619 16.9962 11.4762 16.665C10.5256 16.1217 9.45112 15.8324 8.35624 15.825C7.29849 15.8271 6.26132 16.1176 5.35624 16.665C5.09157 16.818 4.80957 16.9388 4.51624 17.025C4.13433 17.1364 3.81231 17.3949 3.62102 17.7437C3.42973 18.0925 3.38485 18.5031 3.49624 18.885C3.60763 19.2669 3.86617 19.5889 4.21499 19.7802C4.56381 19.9715 4.97433 20.0164 5.35624 19.905L5.26624 19.905Z" fill="#6597CA"/>
</svg>
