<svg width="36" height="36" viewBox="0 0 36 36" fill="none" xmlns="http://www.w3.org/2000/svg">
<path d="M33.3001 2.40002H12.1155C10.2426 2.40002 8.44649 3.15859 7.12219 4.50885C5.79789 5.85911 5.05391 7.69046 5.05391 9.60002V21.312C3.88589 22.1077 3.07569 23.3438 2.80156 24.7485C2.52743 26.1533 2.81182 27.6115 3.59217 28.8024C4.37252 29.9933 5.58491 30.8194 6.96262 31.0989C8.34033 31.3784 9.77051 31.0884 10.9385 30.2928C11.8774 30.9331 12.9927 31.2501 14.1211 31.1974C15.2494 31.1448 16.3316 30.7251 17.2092 30H18.0401C18.9357 30.5743 19.9383 30.9529 20.9847 31.1119C22.0311 31.271 23.0985 31.207 24.1194 30.924C25.1403 30.6411 26.0926 30.1453 26.916 29.468C27.7394 28.7907 28.4161 27.9466 28.9033 26.9891C29.3905 26.0316 29.6776 24.9814 29.7465 23.905C29.8153 22.8286 29.6645 21.7493 29.3035 20.7354C28.9424 19.7214 28.3791 18.7949 27.6489 18.0142C26.9188 17.2336 26.0378 16.6158 25.0616 16.2V12C25.0616 10.727 25.5576 9.50608 26.4405 8.60591C27.3233 7.70573 28.5208 7.20002 29.7693 7.20002H33.3001V2.40002ZM27.4155 23.4C27.4154 24.4194 27.1323 25.4179 26.5991 26.2801C26.0658 27.1423 25.304 27.833 24.4019 28.2723C23.4997 28.7117 22.4941 28.8817 21.5012 28.7627C20.5082 28.6437 19.5686 28.2406 18.791 27.6H16.2347C15.9612 27.9735 15.606 28.2767 15.1974 28.4856C14.7888 28.6944 14.338 28.8032 13.8808 28.8032C13.4237 28.8032 12.9729 28.6944 12.5643 28.4856C12.1557 28.2767 11.8005 27.9735 11.527 27.6H10.3501C10.0641 27.9885 9.68991 28.3004 9.25961 28.5089C8.82932 28.7174 8.35581 28.8162 7.87978 28.7969C7.40375 28.7776 6.93944 28.6407 6.52675 28.398C6.11406 28.1553 5.76534 27.8141 5.51056 27.4037C5.25578 26.9932 5.10256 26.5258 5.06406 26.0417C5.02557 25.5575 5.10296 25.0711 5.28957 24.6241C5.47619 24.1772 5.76645 23.7832 6.13541 23.4759C6.50437 23.1686 6.941 22.9572 7.40776 22.86V13.8C7.40776 13.3226 7.59376 12.8648 7.92483 12.5272C8.2559 12.1897 8.70494 12 9.17315 12C9.64136 12 10.0904 12.1897 10.4215 12.5272C10.7525 12.8648 10.9385 13.3226 10.9385 13.8V21.6C10.9385 21.9183 11.0625 22.2235 11.2832 22.4485C11.504 22.6736 11.8033 22.8 12.1155 22.8C12.4276 22.8 12.727 22.6736 12.9477 22.4485C13.1684 22.2235 13.2924 21.9183 13.2924 21.6V16.2C13.2924 15.7226 13.4784 15.2648 13.8095 14.9272C14.1405 14.5897 14.5896 14.4 15.0578 14.4C15.526 14.4 15.975 14.5897 16.3061 14.9272C16.6372 15.2648 16.8232 15.7226 16.8232 16.2V21.6C16.8232 21.9183 16.9472 22.2235 17.1679 22.4485C17.3886 22.6736 17.6879 22.8 18.0001 22.8C18.3122 22.8 18.6116 22.6736 18.8323 22.4485C19.053 22.2235 19.177 21.9183 19.177 21.6V13.8C19.177 13.3226 19.363 12.8648 19.6941 12.5272C20.0251 12.1897 20.4742 12 20.9424 12C21.4106 12 21.8596 12.1897 22.1907 12.5272C22.5218 12.8648 22.7078 13.3226 22.7078 13.8V18.0336C24.0024 18.1812 25.1983 18.8101 26.0668 19.8001C26.9353 20.7901 27.4154 22.0718 27.4155 23.4Z" fill="#6597CA"/>
</svg>
