<svg width="36" height="36" viewBox="0 0 36 36" fill="none" xmlns="http://www.w3.org/2000/svg">
<path d="M33.1394 12.375H31.3327L30.5051 6.42656C30.429 5.89229 30.167 5.40373 29.767 5.05005C29.3669 4.69637 28.8555 4.50114 28.326 4.5H7.05864C6.52914 4.50114 6.0177 4.69637 5.61765 5.05005C5.2176 5.40373 4.95561 5.89229 4.87949 6.42656L4.05197 12.375H2.24521C1.95258 12.375 1.67193 12.4935 1.46501 12.7045C1.25809 12.9155 1.14185 13.2016 1.14185 13.5C1.14185 13.7984 1.25809 14.0845 1.46501 14.2955C1.67193 14.5065 1.95258 14.625 2.24521 14.625H3.90026V29.25C3.90026 29.8467 4.13275 30.419 4.54659 30.841C4.96044 31.2629 5.52173 31.5 6.10699 31.5H9.41708C10.0023 31.5 10.5636 31.2629 10.9775 30.841C11.3913 30.419 11.6238 29.8467 11.6238 29.25V25.875H23.7608V29.25C23.7608 29.8467 23.9933 30.419 24.4072 30.841C24.821 31.2629 25.3823 31.5 25.9676 31.5H29.2777C29.8629 31.5 30.4242 31.2629 30.838 30.841C31.2519 30.419 31.4844 29.8467 31.4844 29.25V14.625H33.1394C33.4321 14.625 33.7127 14.5065 33.9196 14.2955C34.1266 14.0845 34.2428 13.7984 34.2428 13.5C34.2428 13.2016 34.1266 12.9155 33.9196 12.7045C33.7127 12.4935 33.4321 12.375 33.1394 12.375ZM7.05864 6.75H28.326L29.1122 12.375H6.27249L7.05864 6.75ZM9.41708 29.25H6.10699V25.875H9.41708V29.25ZM25.9676 29.25V25.875H29.2777V29.25H25.9676ZM29.2777 23.625H21.0024V18C21.0024 17.7016 20.8862 17.4155 20.6792 17.2045C20.4723 16.9935 20.1917 16.875 19.8991 16.875C19.6064 16.875 19.3258 16.9935 19.1189 17.2045C18.9119 17.4155 18.7957 17.7016 18.7957 18V23.625H16.589V18C16.589 17.7016 16.4727 17.4155 16.2658 17.2045C16.0589 16.9935 15.7782 16.875 15.4856 16.875C15.193 16.875 14.9123 16.9935 14.7054 17.2045C14.4985 17.4155 14.3822 17.7016 14.3822 18V23.625H6.10699V14.625H29.2777V23.625ZM8.31372 18.5625C8.31372 18.2287 8.41079 17.9025 8.59264 17.625C8.7745 17.3475 9.03299 17.1312 9.33541 17.0035C9.63783 16.8757 9.9706 16.8423 10.2917 16.9074C10.6127 16.9725 10.9076 17.1333 11.1391 17.3693C11.3705 17.6053 11.5282 17.9059 11.592 18.2333C11.6559 18.5606 11.6231 18.8999 11.4978 19.2083C11.3726 19.5166 11.1604 19.7802 10.8883 19.9656C10.6161 20.151 10.2961 20.25 9.96877 20.25C9.52982 20.25 9.10885 20.0722 8.79847 19.7557C8.48809 19.4393 8.31372 19.0101 8.31372 18.5625ZM23.7608 18.5625C23.7608 18.2287 23.8579 17.9025 24.0398 17.625C24.2216 17.3475 24.4801 17.1312 24.7825 17.0035C25.0849 16.8757 25.4177 16.8423 25.7388 16.9074C26.0598 16.9725 26.3547 17.1333 26.5862 17.3693C26.8176 17.6053 26.9753 17.9059 27.0391 18.2333C27.103 18.5606 27.0702 18.8999 26.9449 19.2083C26.8197 19.5166 26.6075 19.7802 26.3354 19.9656C26.0632 20.151 25.7432 20.25 25.4159 20.25C24.9769 20.25 24.556 20.0722 24.2456 19.7557C23.9352 19.4393 23.7608 19.0101 23.7608 18.5625Z" fill="#5271B3"/>
</svg>
