<svg width="37" height="36" viewBox="0 0 37 36" fill="none" xmlns="http://www.w3.org/2000/svg">
<path d="M20.3413 15.1875C20.3413 18 18.6538 21.9375 18.6538 21.9375M19.2163 16.3125C19.2163 16.3125 20.9038 11.8125 16.9663 8.43751C13.0288 5.06251 6.84131 6.18751 6.84131 6.18751C6.84131 6.18751 6.84131 10.6875 10.2163 14.0625C13.5913 17.4375 19.2163 16.3125 19.2163 16.3125ZM21.4663 12.9375C21.4663 12.9375 19.7788 8.43751 23.7163 5.06251C27.6538 1.68751 33.8413 2.81251 33.8413 2.81251C33.8413 2.81251 33.8413 7.31251 30.4663 10.6875C27.0913 14.0625 21.4663 12.9375 21.4663 12.9375ZM12.4663 20.8125H27.0913C27.0913 20.8125 28.2163 30.9375 19.7788 30.9375C11.3413 30.9375 12.4663 20.8125 12.4663 20.8125Z" stroke="#7BAE23" stroke-width="2.5" stroke-linecap="round" stroke-linejoin="round"/>
</svg>
