<svg width="36" height="36" viewBox="0 0 36 36" fill="none" xmlns="http://www.w3.org/2000/svg">
<path d="M32.4909 26.205L25.1351 14.205C25.0032 13.9879 24.8191 13.8088 24.6003 13.6846C24.3814 13.5604 24.1351 13.4952 23.8847 13.4952C23.6342 13.4952 23.3879 13.5604 23.1691 13.6846C22.9502 13.8088 22.7661 13.9879 22.6342 14.205L21.163 16.65L16.3229 8.25C16.1927 8.02617 16.0075 7.84074 15.7857 7.71195C15.5639 7.58316 15.313 7.51544 15.0577 7.51544C14.8025 7.51544 14.5516 7.58316 14.3298 7.71195C14.1079 7.84074 13.9228 8.02617 13.7925 8.25L3.49448 26.25C3.36572 26.4774 3.29776 26.7352 3.29736 26.9977C3.29697 27.2603 3.36417 27.5183 3.49225 27.7461C3.62032 27.9739 3.80478 28.1634 4.02719 28.2956C4.24961 28.4279 4.50218 28.4984 4.75967 28.5H31.2404C31.5033 28.5005 31.7615 28.4292 31.9882 28.2936C32.2148 28.1579 32.4017 27.9627 32.5294 27.7285C32.657 27.4942 32.7208 27.2293 32.714 26.9614C32.7073 26.6934 32.6302 26.4323 32.4909 26.205ZM15.7198 25.5H7.31947L15.0577 12L19.3682 19.5L15.7198 25.5ZM19.177 25.5L22.4135 20.355L23.8847 17.835L28.5923 25.5H19.177Z" fill="#A23687"/>
</svg>
