<svg width="36" height="36" viewBox="0 0 36 36" fill="none" xmlns="http://www.w3.org/2000/svg">
<path d="M19.8991 8.25C21.5173 8.25 22.8414 6.9 22.8414 5.25C22.8414 3.6 21.5173 2.25 19.8991 2.25C18.2808 2.25 16.9567 3.6 16.9567 5.25C16.9567 6.9 18.2808 8.25 19.8991 8.25ZM25.7837 16.17C23.9741 15.615 22.5177 14.415 21.6644 12.9L20.1933 10.5C19.5901 9.52501 18.5603 9 17.4864 9C16.3389 9 15.1472 9.75001 14.8677 11.16C14.5882 12.57 10.3366 34.5 10.3366 34.5H13.426L16.074 22.5L19.1635 25.5V34.5H22.1058V23.25L19.0164 20.25L19.8991 15.75C21.3702 17.475 23.4445 18.765 25.7837 19.26V34.5H27.9904V13.5H25.7837V16.17ZM10.9691 19.695L6.40857 18.795L8.37992 8.49L12.9846 9.405L10.9691 19.695Z" fill="#A23687"/>
</svg>
