<svg width="37" height="36" viewBox="0 0 37 36" fill="none" xmlns="http://www.w3.org/2000/svg">
<path d="M18.6538 7.5V6M5.15381 19.5H6.65381H5.15381ZM30.6538 19.5H32.1538H30.6538ZM9.05381 9.9L10.1038 10.95L9.05381 9.9ZM28.2538 9.9L27.2038 10.95L28.2538 9.9ZM12.6538 19.5C12.6538 17.9087 13.2859 16.3826 14.4112 15.2574C15.5364 14.1321 17.0625 13.5 18.6538 13.5C20.2451 13.5 21.7712 14.1321 22.8964 15.2574C24.0217 16.3826 24.6538 17.9087 24.6538 19.5H12.6538ZM5.15381 25.5H32.1538H5.15381ZM11.1538 30H18.6538H11.1538ZM24.6538 30H26.1538H24.6538Z" stroke="#E0374F" stroke-width="2" stroke-linecap="round" stroke-linejoin="round"/>
</svg>
